<svg xmlns="http://www.w3.org/2000/svg" height="48" viewBox="0 96 960 960" width="48"><path d="M231 991.5q-38.019 0-64.759-26.741Q139.5 938.019 139.5 900V413.257q0-37.657 26.741-64.957Q192.981 321 231 321h83.5v-10q2-67 50.272-113.25t115.5-46.25q67.228 0 115.478 46.369Q644 244.237 646 311v10h83.708q37.692 0 64.992 27.3 27.3 27.3 27.3 64.957V900q0 38.019-27.3 64.759-27.3 26.741-64.957 26.741H231Zm129-458q19.5 0 32.75-13T406 487v-73.5h-91.5V487q0 20.5 13 33.5t32.5 13ZM407 321h146.5v-10q-2-28-22.916-48t-50.5-20q-29.584 0-50.334 20.088Q409 283.175 407 311v10Zm193 212.5q19.5 0 32.75-13T646 487v-73.5h-91.5V487q0 20.5 13 33.5t32.5 13Z"/></svg>