<svg xmlns="http://www.w3.org/2000/svg" height="48" viewBox="0 96 960 960" width="48"><path d="M208 956.5q-23.5 0-42-13.75t-23.877-36.742L24.441 489.283Q19.5 467.5 33.081 450.25 46.66 433 67.794 433H263.5l170.431-254.911q7.842-10.645 19.754-17.617 11.912-6.972 25.815-6.972 13.107 0 25.054 6.75 11.946 6.75 19.308 17.572L693.5 433h200.707q20.134 0 33.714 17.368 13.579 17.369 8.515 38.833L820 906q-5.385 23.053-24.314 36.776-18.929 13.724-41.038 13.724H208Zm272.022-198q26.978 0 45.228-18.272t18.25-45.25q0-26.978-18.272-45.228t-45.25-18.25q-26.978 0-45.228 18.272t-18.25 45.25q0 26.978 18.272 45.228t45.25 18.25ZM372 433h214.5l-108-154.5L372 433Z"/></svg>